<?xml version="1.0" encoding="UTF-8" standalone="no"?>
<!-- Created with Inkscape (http://www.inkscape.org/) -->

<svg
   width="64.999977mm"
   height="90.623428mm"
   viewBox="0 0 64.999977 90.623428"
   version="1.1"
   id="svg5"
   xmlns:inkscape="http://www.inkscape.org/namespaces/inkscape"
   xmlns:sodipodi="http://sodipodi.sourceforge.net/DTD/sodipodi-0.dtd"
   xmlns="http://www.w3.org/2000/svg"
   xmlns:svg="http://www.w3.org/2000/svg">
  <sodipodi:namedview
     id="namedview7"
     pagecolor="#ffffff"
     bordercolor="#000000"
     borderopacity="0.25"
     inkscape:showpageshadow="2"
     inkscape:pageopacity="0.0"
     inkscape:pagecheckerboard="0"
     inkscape:deskcolor="#d1d1d1"
     inkscape:document-units="mm"
     showgrid="false" />
  <defs
     id="defs2" />
  <g
     inkscape:label="Camada 1"
     inkscape:groupmode="layer"
     id="layer1"
     transform="translate(-116.85827,-161.73135)">
    <g
       id="g6016"
       transform="matrix(0.98636358,0,0,0.98636358,-13.563222,37.589795)"
       style="stroke-width:1.01382"
       inkscape:export-filename="logo-certipy.png"
       inkscape:export-xdpi="96"
       inkscape:export-ydpi="96">
      <path
         sodipodi:type="star"
         style="fill:#3fc2ed;fill-opacity:1;fill-rule:evenodd;stroke:none;stroke-width:0.785183;stroke-dasharray:none;stroke-opacity:1"
         id="path2028-3-2"
         inkscape:flatsided="false"
         sodipodi:sides="22"
         sodipodi:cx="89.394119"
         sodipodi:cy="57.719215"
         sodipodi:r1="23.51255"
         sodipodi:r2="25.557121"
         sodipodi:arg1="0"
         sodipodi:arg2="0.14279967"
         inkscape:rounded="0.4"
         inkscape:randomized="0"
         d="m 112.90667,57.719215 c 0,1.620525 2.01506,2.033128 1.78444,3.637158 -0.23063,1.60403 -2.28031,1.432211 -2.73686,2.987093 -0.45656,1.554882 1.36063,2.51848 0.68744,3.992561 -0.67319,1.474081 -2.59143,0.731761 -3.46755,2.095033 -0.87613,1.363272 0.59598,2.7998 -0.46524,4.024511 -1.06122,1.224711 -2.69262,-0.02797 -3.91733,1.033244 -1.22472,1.061218 -0.21696,2.854297 -1.58023,3.730419 -1.36327,0.876122 -2.57567,-0.785441 -4.049754,-0.112251 -1.474082,0.673191 -1.012312,2.677556 -2.567194,3.134111 -1.554882,0.456554 -2.250058,-1.479277 -3.854088,-1.248652 -1.60403,0.230625 -1.72566,2.283895 -3.346185,2.283895 -1.620525,0 -1.742154,-2.05327 -3.346185,-2.283895 -1.60403,-0.230625 -2.299206,1.705206 -3.854088,1.248652 -1.554882,-0.456555 -1.093112,-2.46092 -2.567193,-3.134111 -1.474081,-0.67319 -2.686485,0.988373 -4.049757,0.112251 -1.363272,-0.876122 -0.355512,-2.669201 -1.580223,-3.730419 -1.224711,-1.061218 -2.856119,0.191466 -3.917337,-1.033244 -1.061218,-1.224711 0.410889,-2.661239 -0.465233,-4.024511 -0.876122,-1.363272 -2.794369,-0.620952 -3.467559,-2.095033 -0.67319,-1.474081 1.144003,-2.437679 0.687448,-3.992561 -0.456554,-1.554882 -2.506235,-1.383063 -2.736859,-2.987093 -0.230625,-1.60403 1.784436,-2.016633 1.784436,-3.637158 0,-1.620524 -2.015061,-2.033127 -1.784436,-3.637157 0.230624,-1.60403 2.280305,-1.432211 2.736859,-2.987094 0.456555,-1.554882 -1.360638,-2.518479 -0.687448,-3.992561 0.67319,-1.474081 2.591437,-0.73176 3.467559,-2.095032 0.876122,-1.363272 -0.595985,-2.7998 0.465233,-4.024511 1.061218,-1.224711 2.692626,0.02797 3.917337,-1.033245 1.224711,-1.061218 0.216951,-2.854296 1.580223,-3.730418 1.363273,-0.876122 2.575676,0.785441 4.049757,0.11225 1.474081,-0.67319 1.012311,-2.677555 2.567193,-3.13411 1.554882,-0.456555 2.250058,1.479277 3.854088,1.248652 1.604031,-0.230625 1.725661,-2.283895 3.346185,-2.283895 1.620525,0 1.742155,2.05327 3.346185,2.283895 1.60403,0.230625 2.299206,-1.705206 3.854088,-1.248652 1.554883,0.456555 1.093113,2.46092 2.567194,3.13411 1.474084,0.673191 2.686484,-0.988372 4.049754,-0.11225 1.36327,0.876122 0.35551,2.6692 1.58023,3.730418 1.22471,1.061219 2.85611,-0.191466 3.91733,1.033245 1.06122,1.224711 -0.41089,2.661239 0.46524,4.024511 0.87612,1.363272 2.79436,0.620951 3.46755,2.095033 0.67319,1.474081 -1.144,2.437678 -0.68744,3.99256 0.45655,1.554883 2.50623,1.383064 2.73686,2.987094 0.23062,1.60403 -1.78444,2.016633 -1.78444,3.637157 z"
         inkscape:transform-center-x="-0.36344282"
         transform="matrix(1.3015534,0,0,1.301498,48.822653,83.998894)"
         inkscape:transform-center-y="2.0025787e-06"
         inkscape:export-filename="logo.svg"
         inkscape:export-xdpi="96"
         inkscape:export-ydpi="96" />
      <path
         id="path1204-8-6"
         style="fill:#aaeeff;fill-opacity:1;fill-rule:evenodd;stroke:none;stroke-width:1.02194;stroke-dasharray:none;stroke-opacity:1"
         d="m 165.17375,132.07669 a 26.728506,27.04372 0 0 0 -26.7286,27.04383 26.728506,27.04372 0 0 0 26.7286,27.04331 26.728506,27.04372 0 0 0 26.7286,-27.04331 26.728506,27.04372 0 0 0 -26.7286,-27.04383 z m 0,8.66924 a 18.156345,18.374239 0 0 1 18.15652,18.37459 18.156345,18.374239 0 0 1 -18.15652,18.37407 18.156345,18.374239 0 0 1 -18.15599,-18.37407 18.156345,18.374239 0 0 1 18.15599,-18.37459 z" />
      <path
         style="fill:none;fill-opacity:1;fill-rule:evenodd;stroke:#3fc2ed;stroke-width:3.04147;stroke-linecap:round;stroke-dasharray:none;stroke-opacity:1"
         id="path1204-3-4-9"
         sodipodi:type="arc"
         sodipodi:cx="165.29973"
         sodipodi:cy="159.12033"
         sodipodi:rx="22.408846"
         sodipodi:ry="22.6693"
         sodipodi:start="0.42653283"
         sodipodi:end="5.8378463"
         sodipodi:open="true"
         sodipodi:arc-type="arc"
         d="m 185.70087,168.499 a 22.408846,22.6693 0 0 1 -25.04103,12.79937 22.408846,22.6693 0 0 1 -17.76797,-21.96488 22.408846,22.6693 0 0 1 17.35652,-22.29901 22.408846,22.6693 0 0 1 25.27453,12.32074" />
      <ellipse
         style="fill:#3fc2ed;fill-opacity:1;fill-rule:evenodd;stroke:none;stroke-width:1.02194;stroke-linecap:round;stroke-dasharray:none;stroke-opacity:1"
         id="path5659"
         cx="187.61635"
         cy="159.12025"
         rx="3.3391235"
         ry="3.3391232" />
    </g>
    <g
       aria-label="Certi-py"
       id="text5960"
       style="font-weight:bold;font-size:16.4708px;line-height:0;font-family:'Snell Roundhand';-inkscape-font-specification:'Snell Roundhand Bold';font-variant-ligatures:no-common-ligatures;text-align:center;text-anchor:middle;fill:#3fc2ed;fill-rule:evenodd;stroke-width:1.008;stroke-linecap:round"
       inkscape:export-filename="logo-certipy.svg"
       inkscape:export-xdpi="96"
       inkscape:export-ydpi="96">
      <path
         d="m 121.71724,249.39002 q -1.53178,0 -2.60238,-0.52707 -1.05413,-0.54353 -1.61414,-1.53178 -0.56001,-1.00472 -0.62589,-2.40474 -0.0165,-0.6753 -0.0165,-1.44943 0,-0.77413 0.0165,-1.48237 0.0659,-1.38355 0.62589,-2.38827 0.57648,-1.00471 1.63061,-1.53178 1.0706,-0.54354 2.58591,-0.54354 1.12002,0 2.00944,0.29648 0.88942,0.29647 1.51531,0.82354 0.62589,0.51059 0.97178,1.20237 0.34589,0.69177 0.36236,1.49884 0.0165,0.14824 -0.0988,0.24706 -0.0988,0.0988 -0.24706,0.0988 h -1.56472 q -0.18118,0 -0.29648,-0.0824 -0.11529,-0.0988 -0.16471,-0.31294 -0.26353,-1.08708 -0.90589,-1.48238 -0.64236,-0.39529 -1.59767,-0.39529 -1.10354,0 -1.76237,0.62589 -0.65884,0.60942 -0.70825,2.0259 -0.0494,1.35061 0,2.7671 0.0494,1.41649 0.70825,2.04238 0.65883,0.60942 1.76237,0.60942 0.95531,0 1.59767,-0.3953 0.65883,-0.41177 0.90589,-1.48237 0.0494,-0.2306 0.16471,-0.31295 0.1153,-0.0823 0.29648,-0.0823 h 1.56472 q 0.14824,0 0.24706,0.0988 0.1153,0.0988 0.0988,0.24706 -0.0165,0.80707 -0.36236,1.49885 -0.34589,0.69177 -0.97178,1.21884 -0.62589,0.51059 -1.51531,0.80706 -0.88942,0.29648 -2.00944,0.29648 z"
         style="font-weight:500;font-family:Rubik;-inkscape-font-specification:'Rubik Medium'"
         id="path6618" />
      <path
         d="m 132.02793,249.39002 q -1.82826,0 -2.89886,-1.05413 -1.0706,-1.05413 -1.15295,-2.99769 -0.0165,-0.16471 -0.0165,-0.41177 0,-0.26353 0.0165,-0.41177 0.0659,-1.25178 0.56,-2.1412 0.5106,-0.9059 1.40002,-1.38355 0.88942,-0.49412 2.09179,-0.49412 1.33414,0 2.24003,0.56 0.9059,0.54354 1.36708,1.53179 0.46118,0.97178 0.46118,2.2565 v 0.34589 q 0,0.1647 -0.1153,0.28 -0.11529,0.11529 -0.29647,0.11529 h -5.46831 q 0,0 0,0.0494 0,0.0494 0,0.0823 0.0165,0.57648 0.21412,1.0706 0.21413,0.47766 0.60942,0.77413 0.41177,0.29647 0.97178,0.29647 0.46118,0 0.77413,-0.13176 0.31294,-0.14824 0.51059,-0.32942 0.19765,-0.18118 0.28001,-0.29647 0.14824,-0.19765 0.23059,-0.23059 0.0988,-0.0494 0.28,-0.0494 h 1.41649 q 0.16471,0 0.26353,0.0988 0.1153,0.0988 0.0988,0.24706 -0.0165,0.26353 -0.28,0.64236 -0.24707,0.37883 -0.72472,0.74119 -0.47765,0.36236 -1.20237,0.60942 -0.70824,0.23059 -1.63061,0.23059 z m -1.81179,-5.1883 h 3.64005 v -0.0494 q 0,-0.64236 -0.21412,-1.12001 -0.21412,-0.49412 -0.62589,-0.75766 -0.41177,-0.28 -0.98825,-0.28 -0.57648,0 -0.98825,0.28 -0.41177,0.26354 -0.62589,0.75766 -0.19765,0.47765 -0.19765,1.12001 z"
         style="font-weight:500;font-family:Rubik;-inkscape-font-specification:'Rubik Medium'"
         id="path6620" />
      <path
         d="m 138.23742,249.22531 q -0.16471,0 -0.28001,-0.11529 -0.11529,-0.1153 -0.11529,-0.28001 v -7.75774 q 0,-0.18118 0.11529,-0.29648 0.1153,-0.11529 0.28001,-0.11529 h 1.33413 q 0.16471,0 0.28001,0.11529 0.13176,0.1153 0.13176,0.29648 v 0.6753 q 0.37883,-0.52707 0.97178,-0.80707 0.60942,-0.28 1.40002,-0.28 h 0.6753 q 0.18118,0 0.28,0.11529 0.1153,0.1153 0.1153,0.28 v 1.1859 q 0,0.16471 -0.1153,0.28001 -0.0988,0.11529 -0.28,0.11529 h -1.28472 q -0.7906,0 -1.23531,0.44471 -0.42824,0.42824 -0.42824,1.21884 v 4.52947 q 0,0.16471 -0.1153,0.28001 -0.11529,0.11529 -0.29647,0.11529 z"
         style="font-weight:500;font-family:Rubik;-inkscape-font-specification:'Rubik Medium'"
         id="path6622" />
      <path
         d="m 148.58108,249.22531 q -0.98825,0 -1.66355,-0.34589 -0.67531,-0.34588 -1.00472,-1.02119 -0.32942,-0.69177 -0.32942,-1.71296 v -3.73887 h -1.30119 q -0.16471,0 -0.28,-0.1153 -0.1153,-0.11529 -0.1153,-0.29647 v -0.93884 q 0,-0.1647 0.1153,-0.28 0.11529,-0.11529 0.28,-0.11529 h 1.30119 v -2.73416 q 0,-0.16471 0.0988,-0.28 0.11529,-0.1153 0.29647,-0.1153 h 1.33414 q 0.1647,0 0.28,0.1153 0.1153,0.11529 0.1153,0.28 v 2.73416 h 2.05885 q 0.1647,0 0.28,0.11529 0.11529,0.1153 0.11529,0.28 v 0.93884 q 0,0.18118 -0.11529,0.29647 -0.1153,0.1153 -0.28,0.1153 h -2.05885 v 3.57416 q 0,0.67531 0.23059,1.05413 0.24706,0.37883 0.84001,0.37883 h 1.13648 q 0.16471,0 0.28001,0.1153 0.11529,0.11529 0.11529,0.28 v 1.02119 q 0,0.16471 -0.11529,0.28001 -0.1153,0.11529 -0.28001,0.11529 z"
         style="font-weight:500;font-family:Rubik;-inkscape-font-specification:'Rubik Medium'"
         id="path6624" />
      <path
         d="m 152.17169,249.22531 q -0.1647,0 -0.28,-0.11529 -0.11529,-0.1153 -0.11529,-0.28001 v -7.77422 q 0,-0.1647 0.11529,-0.28 0.1153,-0.11529 0.28,-0.11529 h 1.36708 q 0.18118,0 0.28001,0.11529 0.11529,0.1153 0.11529,0.28 v 7.77422 q 0,0.16471 -0.11529,0.28001 -0.0988,0.11529 -0.28001,0.11529 z m -0.0659,-9.9813 q -0.16471,0 -0.28,-0.1153 -0.1153,-0.11529 -0.1153,-0.28 v -1.1859 q 0,-0.16471 0.1153,-0.28 0.11529,-0.1153 0.28,-0.1153 h 1.49884 q 0.18118,0 0.29648,0.1153 0.11529,0.11529 0.11529,0.28 v 1.1859 q 0,0.16471 -0.11529,0.28 -0.1153,0.1153 -0.29648,0.1153 z"
         style="font-weight:500;font-family:Rubik;-inkscape-font-specification:'Rubik Medium'"
         id="path6626" />
      <path
         d="m 156.47057,245.22291 q -0.18118,0 -0.29647,-0.1153 -0.0988,-0.11529 -0.0988,-0.28 v -1.08708 q 0,-0.1647 0.0988,-0.28 0.11529,-0.11529 0.29647,-0.11529 h 5.05654 q 0.16471,0 0.28,0.11529 0.1153,0.1153 0.1153,0.28 v 1.08708 q 0,0.16471 -0.1153,0.28 -0.11529,0.1153 -0.28,0.1153 z"
         style="font-weight:500;font-family:Rubik;-inkscape-font-specification:'Rubik Medium'"
         id="path6628" />
      <path
         d="m 164.45889,252.35476 q -0.1647,0 -0.28,-0.11529 -0.11529,-0.1153 -0.11529,-0.28001 v -10.90367 q 0,-0.1647 0.11529,-0.28 0.1153,-0.11529 0.28,-0.11529 h 1.3012 q 0.18118,0 0.28,0.11529 0.1153,0.1153 0.1153,0.28 v 0.65884 q 0.3953,-0.52707 1.03766,-0.87296 0.64236,-0.34588 1.59767,-0.34588 0.87295,0 1.51531,0.28 0.64236,0.28 1.0706,0.80707 0.42824,0.51059 0.65883,1.21884 0.23059,0.70824 0.26354,1.56473 0.0165,0.28 0.0165,0.57647 0,0.29648 -0.0165,0.59295 -0.0165,0.82354 -0.24707,1.53179 -0.23059,0.69177 -0.6753,1.21884 -0.42824,0.51059 -1.0706,0.80706 -0.64236,0.29648 -1.51531,0.29648 -0.88943,0 -1.51532,-0.31295 -0.62589,-0.32941 -1.02119,-0.85648 v 3.73887 q 0,0.16471 -0.11529,0.28001 -0.0988,0.11529 -0.28001,0.11529 z m 3.72241,-4.72712 q 0.70824,0 1.10354,-0.29647 0.3953,-0.31295 0.57648,-0.80707 0.18118,-0.49412 0.21412,-1.08707 0.0165,-0.49413 0,-0.98825 -0.0329,-0.59295 -0.21412,-1.08707 -0.18118,-0.49413 -0.57648,-0.7906 -0.3953,-0.31295 -1.10354,-0.31295 -0.67531,0 -1.10355,0.31295 -0.41177,0.31294 -0.60942,0.80707 -0.18118,0.47765 -0.21412,0.98825 -0.0165,0.29647 -0.0165,0.62589 0,0.32941 0.0165,0.64236 0.0165,0.49412 0.23059,0.9553 0.21412,0.44471 0.62589,0.74119 0.41177,0.29647 1.07061,0.29647 z"
         style="font-weight:500;font-family:Rubik;-inkscape-font-specification:'Rubik Medium'"
         id="path6630" />
      <path
         d="m 175.3687,252.35476 q -0.13177,0 -0.23059,-0.0988 -0.0988,-0.0988 -0.0988,-0.23059 0,-0.0659 0,-0.13177 0.0165,-0.0494 0.0659,-0.13177 l 1.28472,-3.04709 -3.16239,-7.46128 q -0.0659,-0.1647 -0.0659,-0.23059 0.0165,-0.14823 0.1153,-0.24706 0.0988,-0.11529 0.24706,-0.11529 h 1.33413 q 0.19765,0 0.29648,0.0988 0.0988,0.0988 0.14824,0.21412 l 2.19061,5.38595 2.2565,-5.38595 q 0.0494,-0.13177 0.14824,-0.21412 0.0988,-0.0988 0.29647,-0.0988 h 1.31767 q 0.13176,0 0.23059,0.0988 0.11529,0.0988 0.11529,0.23059 0,0.0988 -0.0659,0.26353 l -4.66124,10.78838 q -0.0659,0.13176 -0.1647,0.21412 -0.0988,0.0988 -0.29648,0.0988 z"
         style="font-weight:500;font-family:Rubik;-inkscape-font-specification:'Rubik Medium'"
         id="path6632" />
    </g>
  </g>
</svg>
